# xmcd
#
# Track frame offsets:
#	150
#	16193
#	33023
#	49685
#	62965
#	78658
#	95743
#	110658
#	124120
#	143095
#	159565
#	174970
#
# Disc length: 2529 seconds
#
# Revision: 3
# Processed by: cddbd v1.5.2PL0 Copyright (c) Steve Scherf et al.
# Submitted via: audiograbber 1.83.01
#
DISCID=9909df0c
DTITLE=Kristina Bach - Kristina Bach
DYEAR=1991
DGENRE=Pop
TTITLE0=Antonio
TTITLE1=Charly
TTITLE2=Ich komm um vor Einsamkeit
TTITLE3=Ich hab geträumt
TTITLE4=Tarantella um Mitternacht
TTITLE5=Heimliche Tränen
TTITLE6=Erst ein Cappuccino
TTITLE7=Reigen der nacht
TTITLE8=Eldorado
TTITLE9=Ich lieb Dich immer noch
TTITLE10=Fortuna, Fortuna
TTITLE11=Du und ich (vielleicht ein Traum)
EXTD=
EXTT0=\n
EXTT1=
EXTT2=
EXTT3=
EXTT4=
EXTT5=
EXTT6=
EXTT7=
EXTT8=
EXTT9=
EXTT10=
EXTT11=
PLAYORDER=
